<svg t="1622651488162" class="icon" viewBox="0 0 1024 1024" version="1.1" xmlns="http://www.w3.org/2000/svg" p-id="5798" width="128" height="128"><path d="M512 469.333333m-85.333333 0a85.333333 85.333333 0 1 0 170.666666 0 85.333333 85.333333 0 1 0-170.666666 0Z" fill="#444444" p-id="5799"></path><path d="M298.666667 768h426.666666v85.333333H298.666667z" fill="#444444" p-id="5800"></path><path d="M469.333333 640h85.333334v213.333333H469.333333z" fill="#444444" p-id="5801"></path><path d="M512 213.333333a256 256 0 1 1 0 512A256 256 0 0 1 512 213.333333z m0 128a128 128 0 1 0 0 256 128 128 0 0 0 0-256z" fill="#444444" p-id="5802"></path></svg>